<svg xmlns="http://www.w3.org/2000/svg" viewBox="0 0 600 600">
  <path d="M257.1,445.89c1.5-5.51,5.36-17,11.8-35.16,5-14.09,10.71-30.94,17-50.25-9.82.72-19.75,1.54-29.62,2.46-10.46.86-21.49,1.71-33.23,2.56-11.45.83-21.67,1.67-30.38,2.5-6.44,1-11.67-.09-15.73-3a52.83,52.83,0,0,1-6.91-6.14,37.93,37.93,0,0,1-5.1-7.4c-1.63-2.83-3.3-5.91-4.95-9.13s-3.18-6.25-4.67-9.27a32.85,32.85,0,0,1-3.42-10.39,24.38,24.38,0,0,1,1.5-15.56,50.93,50.93,0,0,1,7.3-11.34l0.55-.62q20.93-21.65,37.12-38.21C209,246,218.1,236.6,225.33,229c8.71-9.08,16.26-16.83,22.47-23.07,5.61-5.58,12-12.08,18.89-19.35,7.21-7.57,15-15,23.14-21.94a232.73,232.73,0,0,1,26-19.35,100.92,100.92,0,0,1,17.86-9.17,222.11,222.11,0,0,0-33.77-2.58c-83.6,0-152.52,45.89-162.48,105.15-50.64,18.06-86.15,60.14-86.15,109.17,0,65.5,63.36,118.6,141.51,118.6a163.46,163.46,0,0,0,62.65-12.26A38.81,38.81,0,0,1,257.1,445.89Z" style="fill:#4d74b9;stroke:#4d74b9;stroke-miterlimit:10"/><path d="M452.07,209.2c-9.38-17.28-24.11-32.58-42.65-44.82-3.74,12.64-7.31,24.86-10.63,36.43-5.22,18.2-9.74,34.4-13.42,48.16-4.3,16.05-8.12,30.95-11.35,44.28l-0.49,1.51c-0.12.3-.24,0.61-0.36,0.91l0.7,0c4.54-.28,9.54-0.5,14.77-0.65s10.23-.22,14.71-0.22H414l0.12,10.66a51,51,0,0,1-3.6,20.42,69.43,69.43,0,0,1-4.08,8.4,49.4,49.4,0,0,1-6.14,8.76,57,57,0,0,1-6.94,7.13,76.37,76.37,0,0,1-7.68,5.93l-3.31,2.21-4-.47c-2.1-.25-4.67-0.44-7.65-0.57s-6.17-.2-9.11-0.2H358c-2.13,8.18-4.19,16.48-6.15,24.78-2.32,9.92-5.07,21.18-8.18,33.45-1.78,7-3.49,14.16-5.14,21.34a110.08,110.08,0,0,0,130.93-4.22C516,422.86,551.25,377,551.25,321.72,551.25,259.78,506.9,209.54,452.07,209.2Z" style="fill:#4d74b9;stroke:#4167b1;stroke-miterlimit:10"/><path d="M237.92,298.17C314.05,212.38,345.5,193.29,345.5,193.29c-18,55.71-35,102.43-35,102.43C243.07,296.62,237.92,298.17,237.92,298.17Z" style="fill:#4d74b9;stroke:#4d74b9;stroke-miterlimit:10"/>
</svg>
