<?xml version="1.0" encoding="utf-8"?>
<!-- Generator: Adobe Illustrator 18.1.1, SVG Export Plug-In . SVG Version: 6.00 Build 0)  -->
<svg version="1.1" id="Layer_1" xmlns="http://www.w3.org/2000/svg" xmlns:xlink="http://www.w3.org/1999/xlink" x="0px" y="0px"
	 viewBox="0 0 482.6 177.3" enable-background="new 0 0 482.6 177.3" xml:space="preserve">
<g>
	<path opacity="0.9215" d="M445.5,120c0,7.1-5.8,12.9-12.9,12.9h-43.7c0,6.8,5.1,12.6,5.1,15.4s-2.3,5.1-5.1,5.1h-41.1
		c-2.8,0-5.1-2.3-5.1-5.1c0-3,5.1-8.4,5.1-15.4h-43.7c-7.1,0-12.9-5.8-12.9-12.9V32.5c0-7.1,5.8-12.9,12.9-12.9h128.6
		c7.1,0,12.9,5.8,12.9,12.9V120z M435.2,32.5c0-1.4-1.2-2.6-2.6-2.6H304.1c-1.4,0-2.6,1.2-2.6,2.6v66.9c0,1.4,1.2,2.6,2.6,2.6h128.6
		c1.4,0,2.6-1.2,2.6-2.6V32.5z"/>
</g>
<g>
	<path opacity="0.9215" d="M245.8,121.2c0,7.1-5.8,12.9-12.9,12.9h-66.9c-7.1,0-12.9-5.8-12.9-12.9V33.8c0-7.1,5.8-12.9,12.9-12.9
		h66.9c7.1,0,12.9,5.8,12.9,12.9V121.2z M235.5,33.8c0-1.4-1.2-2.6-2.6-2.6h-66.9c-1.4,0-2.6,1.2-2.6,2.6V111c0,1.4,1.2,2.6,2.6,2.6
		h66.9c1.4,0,2.6-1.2,2.6-2.6V33.8z M199.5,118.7c-2.8,0-5.1,2.3-5.1,5.1s2.3,5.1,5.1,5.1s5.1-2.3,5.1-5.1S202.3,118.7,199.5,118.7z
		"/>
</g>
<g>
	<path opacity="0.9215" d="M107.4,118.9c0,5.6-4.7,10.3-10.3,10.3H56c-5.6,0-10.3-4.7-10.3-10.3V36.6c0-5.6,4.7-10.3,10.3-10.3h41.1
		c5.6,0,10.3,4.7,10.3,10.3V118.9z M99.7,49.5c0-1.4-1.2-2.6-2.6-2.6H56c-1.4,0-2.6,1.2-2.6,2.6v56.6c0,1.4,1.2,2.6,2.6,2.6h41.1
		c1.4,0,2.6-1.2,2.6-2.6V49.5z M83,36.6H70.1c-0.7,0-1.3,0.6-1.3,1.3s0.6,1.3,1.3,1.3H83c0.7,0,1.3-0.6,1.3-1.3S83.7,36.6,83,36.6z
		 M76.6,112.5c-3.5,0-6.4,2.9-6.4,6.4s2.9,6.4,6.4,6.4s6.4-2.9,6.4-6.4S80.1,112.5,76.6,112.5z"/>
</g>
</svg>
