<svg xmlns="http://www.w3.org/2000/svg" viewBox="0 0 748.48 264.24">
  <path d="M103.48,50.8c0.09-3.07.07-6.84,0.06-6.89a1.32,1.32,0,0,0-1.46-1s-6.5.57-7.07,0.6a87.35,87.35,0,0,1-9.63.36,1.12,1.12,0,0,0-.41.4,2.33,2.33,0,0,0,.51,3s3.64,0.35,3.9.39a6.1,6.1,0,0,1,1.44.41c1.43,0.56,1.76,1.63,1.85,3.75l0,4.1V86.65c0,10.54-.14,11.85-5.56,12.73l-2.78.44c-1,.73-0.73,3.22.3,3.66,3.8-.3,8.19-0.44,13.45-0.44s9.37,0.15,16.24.44c1-.44,1.32-2.93.29-3.66l-5.27-.44c-5.56-.44-5.85-2.19-5.85-12.73V66.75c0-5,.44-9.22,1.9-11.26a6.51,6.51,0,0,1,5.27-2.93,11.94,11.94,0,0,1,6.44,2.34,5.63,5.63,0,0,0,3.22,1,6.49,6.49,0,0,0,6.3-6.73c0-3.51-2.93-5.85-6.59-5.85-5.41,0-11,4.54-16.09,8.78A1.39,1.39,0,0,1,103.48,50.8Z" style="fill:#fff"/><path d="M696.88,50.8c0.09-3.07.07-6.84,0.06-6.89a1.32,1.32,0,0,0-1.46-1s-6.5.57-7.07,0.6a87.35,87.35,0,0,1-9.63.36,1.1,1.1,0,0,0-.42.4,2.33,2.33,0,0,0,.51,3s3.64,0.35,3.9.39a6.13,6.13,0,0,1,1.44.41c1.43,0.56,1.76,1.63,1.85,3.75l0,4.1V86.65c0,10.54-.14,11.85-5.56,12.73l-2.78.44c-1,.73-0.73,3.22.3,3.66,3.8-.3,8.19-0.44,13.46-0.44s9.36,0.15,16.24.44c1-.44,1.32-2.93.29-3.66l-5.27-.44c-5.56-.44-5.85-2.19-5.85-12.73V66.75c0-5,.44-9.22,1.9-11.26A6.5,6.5,0,0,1,704,52.56a11.93,11.93,0,0,1,6.44,2.34,5.63,5.63,0,0,0,3.22,1A6.49,6.49,0,0,0,720,49.19c0-3.51-2.93-5.85-6.59-5.85-5.41,0-11,4.54-16.09,8.78A1.39,1.39,0,0,1,696.88,50.8Z" style="fill:#fff"/><path d="M26.48,44.33c0,4.19.47,4.19,5.12,4.19H44.83c6.36,0,11.33-.31,13.19-0.93,1.71-.62,3-1.4,3.88-5.43L63.3,36c0.77-.93,3.41-0.93,4,0,0,3.72-.62,9.94-0.62,15.68,0,5.58.62,11.48,0.62,15.05-0.62.93-2.95,0.93-4,0l-1.55-6.05c-0.78-2.8-2-5-5-5.9-2.18-.62-6.06-0.78-12-0.78H31.61c-4.66,0-5.12.16-5.12,4.19V79.72c0,16.3.31,18.63,9.47,19.4l5.28,0.47c0.93,0.62.62,3.41-.31,3.88-9.16-.31-14.43-0.46-20.65-0.46-6.83,0-12.11.15-19.4,0.46-0.93-.46-1.24-3-0.31-3.88l3.88-.47c9-1.09,9.31-3.1,9.31-19.4V23.84c0-16.3-.31-18.47-9.31-19.56L2,4C1,3.35,1.34.56,2.27,0.09c6.52,0.31,11.8.46,18,.46H54.17c9.93,0,18.94,0,21-.46,0,7.14.16,14.59,0.47,20.49-0.47.93-2.64,1.4-3.72,0.47C70.62,14.06,68.76,8.32,61,6.3c-3.41-.93-8.54-0.93-15.06-0.93H31.14c-4.66,0-4.66.31-4.66,6.21V44.33Z" style="fill:#fff"/><path d="M385,62.18c3.51,7.18,6.87,14.21,10.54,20.93h0.31C400,75.93,403.81,68,407.63,60.2L422,31c6.87-13.9,11.3-22.3,11.61-29.33,5.2,0.46,8.4.46,11.46,0.46,3.82,0,8.86-.15,13.6-0.46,0.92,0.61.92,3.21,0.15,3.82l-3.21.31c-9.62.91-10.85,3.82-10.69,14.51,0.3,16.19.45,44.45,1.68,66.45,0.46,7.64.3,11.76,7.48,12.38L459,99.61c0.92,0.92.76,3.21-.3,3.82-6.26-.31-12.53-0.46-18-0.46-5.34,0-12.22.15-18.48,0.46a2.83,2.83,0,0,1-.31-3.82l4.43-.46c7.49-.77,7.49-3.21,7.49-13l-0.46-63.7H433c-1.07,1.68-6.87,13.9-9.93,19.86L409.47,69.06c-6.87,13.44-13.75,27.8-16.5,34.83a1.78,1.78,0,0,1-1.53.61,1.88,1.88,0,0,1-1.38-.61c-2.59-8.1-9.93-23.07-13.44-30.55L362.88,43.85c-3.21-7-6.42-15-9.77-22h-0.31c-0.61,9.47-1.07,18.33-1.53,27.19-0.46,9.32-1.07,22.91-1.07,35.9,0,11.3.92,13.75,6.88,14.21l5.8,0.46c1.07,0.92.92,3.36-.15,3.82-5.19-.31-11.15-0.46-17-0.46-4.89,0-10.39.15-15.58,0.46-0.92-.77-1.22-3.05-0.31-3.82l3.36-.46c6.41-.92,8.55-1.84,9.47-12.53,0.91-10.08,1.68-18.48,2.59-33.61C346.07,40.34,346.68,27.36,347,19c0.31-9.62-.92-11.91-10.23-13.13l-2.44-.31c-0.76-.92-0.61-3.21.61-3.82C339.5,2,343.17,2.15,347,2.15c3.52,0,7.64,0,12.68-.46-0.61,6,3.21,15.43,7.94,25.21Z" style="fill:#fff"/><path d="M186.15,89.73c-4.53,5.7-8.63,7.16-13.45,7.16-0.92,0-1.82-.05-2.69-0.14l-0.39,0c-12.7-1.44-20.07-11.74-21.07-24.22-0.17-1.46,1.12-1.56,3.82-1.56h28.39c6.14,0,8.19-.15,8.63-1a9,9,0,0,0,.59-3.8c0-15.45-10.8-22.73-22.1-22.73-17.55,0-29.39,15.07-29.39,33.05a31,31,0,0,0,6.14,19c4.24,5.56,11.7,9.65,21.2,9.65,7.6,0,18.13-3.66,23-13.6A1.93,1.93,0,0,0,186.15,89.73Zm-19.89-42c7.3,0,10.65,5.3,11.8,9.24,0.61,2.09,1.39,7.06.09,8s-5.89,1.53-16.71,1.53H149.72c-1,0-1-.44-1-0.73C148.84,61,155.5,47.76,166.26,47.76Z" style="fill:#fff"/><path d="M520.3,89.73c-4.53,5.7-8.63,7.16-13.45,7.16-0.92,0-1.82-.05-2.69-0.14l-0.39,0C491.06,95.27,483.69,85,482.7,72.49c-0.17-1.46,1.12-1.56,3.82-1.56h28.39c6.14,0,8.19-.15,8.62-1a9,9,0,0,0,.59-3.8c0-15.45-10.8-22.73-22.1-22.73-17.55,0-29.39,15.07-29.39,33.05a31,31,0,0,0,6.14,19c4.24,5.56,11.7,9.65,21.2,9.65,7.6,0,18.13-3.66,23-13.6A1.93,1.93,0,0,0,520.3,89.73Zm-19.89-42c7.3,0,10.65,5.3,11.8,9.24,0.61,2.09,1.4,7.06.09,8s-5.89,1.53-16.71,1.53H483.87c-1,0-1-.44-1-0.73C483,61,489.66,47.76,500.41,47.76Z" style="fill:#fff"/><path d="M657.13,89.73c-4.53,5.7-8.63,7.16-13.45,7.16-0.92,0-1.82-.05-2.69-0.14l-0.39,0c-12.7-1.44-20.07-11.74-21.07-24.22-0.17-1.46,1.12-1.56,3.82-1.56h28.39c6.14,0,8.19-.15,8.63-1a9,9,0,0,0,.58-3.8c0-15.45-10.8-22.73-22.1-22.73-17.55,0-29.39,15.07-29.39,33.05a31,31,0,0,0,6.14,19c4.24,5.56,11.7,9.65,21.2,9.65,7.6,0,18.13-3.66,23-13.6A1.93,1.93,0,0,0,657.13,89.73Zm-19.89-42c7.3,0,10.66,5.3,11.8,9.24,0.61,2.09,1.39,7.06.09,8s-5.89,1.53-16.72,1.53H620.7c-1,0-1-.44-1-0.73C619.82,61,626.49,47.76,637.24,47.76Z" style="fill:#fff"/><path d="M272.7,98.45L269.19,98c-5.27-.73-5.56-0.86-5.56-11.39V19h0c0-2,0-4.09.08-6.15,0-1.35.06-2.69,0.1-4,0.09-3.06.46-7.15,0.29-7.76a1.39,1.39,0,0,0-.84-1A2.4,2.4,0,0,0,262.62,0c-0.63,0-6.5.56-7.07,0.58-5.07.21-7,.15-11.76,0a1.17,1.17,0,0,0-.42.4c-0.6.87-.6,2.69,0.28,3.27l3.49,0.29,0.8,0.1a7.51,7.51,0,0,1,2.39.65c1.3,0.67,2.15,1.33,2.31,3.72,0,0.31.06,1.24,0.09,1.59,0.08,1.25.1,5.86,0.1,5.86v27c-0.08.71-.3,1.19-0.84,1.19a30,30,0,0,0-9.8-1.32c-19.89,0-35.39,13.16-35.39,33.64,0,15.36,10.82,28.08,27.06,28.08a25.3,25.3,0,0,0,10-1.95,46.72,46.72,0,0,0,8.47-4.78l0.65-.45c0.31-.15.23,1,0.23,1.64V102a1.11,1.11,0,0,0,.81,1,2.18,2.18,0,0,0,.79.16s3.63-.5,11.17-1a52.57,52.57,0,0,1,6.48-.09,1.1,1.1,0,0,0,.4-0.32C273.48,101,273.57,99.07,272.7,98.45ZM252.81,86.62l0,4.13a5.34,5.34,0,0,1-1,3.21c-2.34,2.34-7.31,4.1-11.26,4.1-14.33,0-21.79-12.58-21.79-25.88,0-12.72,6.87-24.28,20.18-24.28A15.26,15.26,0,0,1,251.24,54a8,8,0,0,1,1.57,4.52V86.62Z" style="fill:#fff"/><path d="M563.79,104.2c-0.1,7.27-6.53,17.37-12.68,17.12-3.26-.13-4.52-1.4-6.35-2.73-0.42-.31-0.83-0.62-1.21-0.94a3.36,3.36,0,0,0-3-1,4.5,4.5,0,0,0-3.76,4.87,5,5,0,0,0,1.59,2.92c2.22,2.11,6.38,2.75,10.88,2.27,7.91-.85,14-7.08,16.71-12.86,0.16-.36.45-1,0.8-1.84,1-2.43,5.64-14.27,8.88-22.14L586,64.59c4.69-10.33,7.61-14.64,12.44-15.51l2.49-.44c1-.88.88-3.08-0.29-3.66h-0.14c-4.22.25-8,.39-11.83,0.42-3.37,0-7.11-.17-11.07-0.42-1.17.44-1.32,2.93-.29,3.66l4.54,0.73c2.63,0.44,3.51,1.46,3.51,2.48,0,1.61-1.9,7-5.13,14.64L574.63,80.4c-1.76,4.24-2.93,6.73-3.37,7,0-.2-0.61-1.5-1.42-3.35l-0.33-.76c-0.29-.68-0.59-1.41-0.89-2.18l-9.08-22.39c-1.61-4-2.34-6.73-2.34-7.61s1.17-1.75,3.22-2l3.36-.59A2.29,2.29,0,0,0,563.5,45q-5.93.44-12.74,0.44c-4.39,0-8.49-.15-13-0.44-1.32.59-1.17,2.78-.44,3.51l2.34,0.59c3.66,0.88,5.42,2.34,8.78,10.54L561.9,92.7C564.3,100.32,563.81,103.27,563.79,104.2Z" style="fill:#fff"/><path d="M543.11,184.81c0.09-3.07.07-6.84,0.06-6.89a1.32,1.32,0,0,0-1.46-1s-6.5.57-7.07,0.6a87.83,87.83,0,0,1-9.63.36,1.1,1.1,0,0,0-.42.4,2.33,2.33,0,0,0,.51,3s3.64,0.35,3.9.39a6.28,6.28,0,0,1,1.44.41c1.43,0.56,1.76,1.63,1.85,3.75l0,4.1v30.74c0,10.54-.14,11.85-5.56,12.73l-2.78.44c-1,.74-0.73,3.22.3,3.66,3.8-.29,8.19-0.44,13.45-0.44s9.37,0.15,16.24.44c1-.44,1.32-2.93.29-3.66l-5.27-.44c-5.56-.44-5.85-2.19-5.85-12.73v-19.9c0-5,.44-9.22,1.9-11.26a6.5,6.5,0,0,1,5.27-2.93,11.93,11.93,0,0,1,6.44,2.34,5.64,5.64,0,0,0,3.22,1,6.49,6.49,0,0,0,6.3-6.73c0-3.51-2.93-5.86-6.59-5.86-5.41,0-11,4.54-16.09,8.78A1.39,1.39,0,0,1,543.11,184.81Z" style="fill:#fff"/><path d="M247.12,193.61c-3.36-8.19-5.12-9.65-8.77-10.53L236,182.5c-0.73-.73-0.88-2.93.44-3.51,4.53,0.29,8.63.44,13,.44q6.8,0,12.73-.44a2.3,2.3,0,0,1,.29,3.51l-3.36.59c-2,.29-3.22,1.17-3.22,2s0.73,3.65,2.34,7.6l9.07,22.37c1.31,3.36,2.63,6,2.63,6.29,0.44-.29,1.61-2.78,3.36-7l7.17-17.7c1.9-4.68,2-6.58,1.32-8.48-1.32-3.22-3.51-4.39-6.73-5.12l-2.34-.59c-1-.88-0.73-3.07.44-3.51,3.66,0.29,8.34.44,12.14,0.44,4.53,0,8.92-.15,13.89-0.44,1.32,0.44,1.32,2.78.44,3.51l-3.07.59c-5.85,1.17-5.56,1.61-3.8,6.72,1.61,4.83,9.51,23.4,11.11,27.35,0.88,2.19,1.46,3.8,1.9,4.1a23.39,23.39,0,0,0,2-4.1c1.9-4.24,7.75-19.74,9.95-25.88a20.91,20.91,0,0,0,1.46-6.29c0-.88-0.88-1.61-2.63-1.9l-3.66-.59c-1.17-.73-0.88-3.07.15-3.51,4.24,0.29,7.9.44,11.55,0.44,2.78,0,6.29-.15,9.51-0.44a2.42,2.42,0,0,1,.44,3.51l-2.92.59c-3.51.73-4.83,2.78-7.9,9.21-3.95,8.19-11,25.74-13.75,33.2-2,5.26-3.8,9.51-5,13.3a2.93,2.93,0,0,1-1.9.59,2.2,2.2,0,0,1-1.61-.59c-0.88-2.63-3.51-10.23-6-16.08l-7-16.82a74.89,74.89,0,0,0-3.36-7.46,68.23,68.23,0,0,0-3.22,7.17l-7.61,18.28c-2.63,6.29-4.68,11.55-5.85,14.91a2.32,2.32,0,0,1-1.76.59,2.54,2.54,0,0,1-1.75-.59c-0.88-3.07-3.22-9.06-4.39-12.14Z" style="fill:#fff"/><path d="M614.31,180a34.15,34.15,0,0,1,2.34,11.85c-0.59,1-2.78,1.32-3.51.44-2.49-6.43-6.88-10.67-12.87-10.67-5.71,0-9.36,3.66-9.36,8.92,0,6,6.14,9.21,11.26,12.14,7.75,4.38,14.92,9.36,14.92,19.74,0,11.12-10.24,16.67-21.06,16.67-6.87,0-12-1.46-15.65-4.39-1.17-2.78-2-9.94-1.76-14.77a2.49,2.49,0,0,1,3.37-.14c2.48,8,7.16,15.06,15.5,15.06,5.26,0,9.8-3.07,9.8-9.36,0-6.73-5.85-10.38-11.26-13.45-8.48-4.83-14.48-9.95-14.48-18,0-10.67,8.77-16.67,19.89-16.67C607.59,177.38,613,178.85,614.31,180Z" style="fill:#fff"/><path d="M219.46,223.74c-4.53,5.7-8.63,7.16-13.45,7.16-0.92,0-1.82,0-2.69-.14l-0.39,0c-12.7-1.44-20.07-11.74-21.07-24.22-0.17-1.46,1.12-1.56,3.83-1.56h28.39c6.14,0,8.19-.14,8.63-1a9,9,0,0,0,.59-3.8c0-15.45-10.8-22.73-22.1-22.73-17.55,0-29.39,15.06-29.39,33.05a31,31,0,0,0,6.14,19c4.24,5.56,11.7,9.65,21.2,9.65,7.6,0,18.13-3.65,23-13.6A1.93,1.93,0,0,0,219.46,223.74Zm-19.89-42c7.3,0,10.65,5.3,11.8,9.24,0.61,2.09,1.4,7.07.08,8s-5.89,1.53-16.71,1.53H183c-1,0-1-.44-1-0.73C182.16,195,188.82,181.77,199.57,181.77Z" style="fill:#fff"/><path d="M392.13,223.74c-4.53,5.7-8.63,7.16-13.45,7.16-0.92,0-1.82,0-2.7-.14l-0.39,0c-12.7-1.44-20.07-11.74-21.07-24.22-0.17-1.46,1.12-1.56,3.82-1.56h28.39c6.14,0,8.19-.14,8.63-1a9,9,0,0,0,.59-3.8c0-15.45-10.8-22.73-22.1-22.73-17.55,0-29.39,15.06-29.39,33.05a31,31,0,0,0,6.14,19c4.24,5.56,11.7,9.65,21.2,9.65,7.6,0,18.13-3.65,23-13.6A1.93,1.93,0,0,0,392.13,223.74Zm-19.89-42c7.3,0,10.66,5.3,11.8,9.24,0.61,2.09,1.4,7.07.09,8s-5.89,1.53-16.71,1.53H355.7c-1,0-1-.44-1-0.73C354.82,195,361.49,181.77,372.24,181.77Z" style="fill:#fff"/><path d="M503.95,223.74c-4.53,5.7-8.63,7.16-13.45,7.16-0.92,0-1.82,0-2.69-.14l-0.39,0c-12.7-1.44-20.07-11.74-21.07-24.22-0.17-1.46,1.12-1.56,3.82-1.56h28.39c6.14,0,8.19-.14,8.62-1a9,9,0,0,0,.59-3.8c0-15.45-10.8-22.73-22.1-22.73-17.55,0-29.39,15.06-29.39,33.05a31,31,0,0,0,6.14,19c4.24,5.56,11.7,9.65,21.2,9.65,7.6,0,18.14-3.65,23-13.6A1.93,1.93,0,0,0,503.95,223.74Zm-19.89-42c7.3,0,10.65,5.3,11.8,9.24,0.61,2.09,1.4,7.07.09,8s-5.89,1.53-16.71,1.53H467.52c-1,0-1-.44-1-0.73C466.64,195,473.31,181.77,484.06,181.77Z" style="fill:#fff"/><path d="M441,233.83l-3.51-.44c-5.27-.73-5.56-2.19-5.56-12.72V153.06h0c0-2,0-4.08.07-6.14h0c0-1.35.06-2.69,0.1-4,0.09-3.07.26-7.85,0.25-7.9a1.33,1.33,0,0,0-1.46-1s-6.5.58-7.07,0.61c-5.07.21-7,.15-11.76,0a1.13,1.13,0,0,0-.41.4c-0.6.87-.6,2.69,0.28,3.27,0,0,4,.36,4.29.39a7.47,7.47,0,0,1,2.39.65,4.31,4.31,0,0,1,2.36,3.17c0.1,0.61.13,4.85,0.13,6.65h0v71.43c0,10.53-.14,12-5.56,12.72l-3.36.44c-1,.73-0.73,3.22.29,3.66,4.39-.29,8.77-0.44,14-0.44s9.36,0.15,14.18.44C441.74,237,442,234.56,441,233.83Z" style="fill:#fff"/><path d="M160.69,133.78c-6.09.3-11.27,0.46-17.35,0.46-6.4,0-10.25-.15-19.08-0.46-0.91.46-1.22,3.2-.3,3.81l3.81,0.31c9,0.76,10.5,2.58,10.5,19.48h0v67.11c0,7.53-.6,18.51-3.32,25.44-2.26,5.42-6,8.28-10.68,8.28-5,0-9.18-3.31-12-6.62a4.3,4.3,0,0,0-3.61-1.81,5.76,5.76,0,0,0-5.72,5.42c0,5.42,6.77,9,14.75,9,14.9,0,23.33-10.54,27.1-19.12,3.61-8.43,4.67-17.77,4.67-26.5V157.37h0c0-16.13.31-18.27,9.29-19.48l2.28-.31C161.91,137,161.61,134.23,160.69,133.78Z" style="fill:#fff"/><path d="M628.84,180.28h4.57c1.82,0,3,1,3,2.54a2.33,2.33,0,0,1-1.69,2.46v0c1.13,0.22,1.36,1,1.46,2a5,5,0,0,0,.57,2.68h-1.44c-0.37-.4-0.16-1.44-0.35-2.4s-0.37-1.76-1.62-1.76h-3.16V190h-1.29v-9.72Zm4,4.48c1.21,0,2.25-.31,2.25-1.73a1.54,1.54,0,0,0-1.73-1.66h-3.21v3.39h2.7Z" style="fill:#fff"/><path d="M632.33,192.82a7.67,7.67,0,1,1,7.67-7.67A7.68,7.68,0,0,1,632.33,192.82Zm0-14.4a6.73,6.73,0,1,0,6.73,6.73A6.74,6.74,0,0,0,632.33,178.41Z" style="fill:#000"/>
</svg>
