<svg id="Layer_1" data-name="Layer 1" xmlns="http://www.w3.org/2000/svg" viewBox="0 0 144 104.49"><title>Untitled-2</title><path d="M44.17,21.4l41.2,1.54V84l-41.2,2.39v-65m0-2.08a2.08,2.08,0,0,0-2.08,2.08v65a2.08,2.08,0,0,0,2.08,2.08h0.12l41.2-2.39a2.08,2.08,0,0,0,2-2.08v-61a2.08,2.08,0,0,0-2-2.08l-41.2-1.54H44.17Z" style="fill:#fff"/><path d="M100.49,14.71V79.4L70.86,77.69V18.07l29.63-3.36m0-2.08h-0.23L70.63,16a2.08,2.08,0,0,0-1.85,2.07V77.69a2.08,2.08,0,0,0,2,2.08l29.63,1.71h0.12a2.08,2.08,0,0,0,2.08-2.08V14.71a2.08,2.08,0,0,0-2.08-2.08h0Z" style="fill:#fff"/><path d="M55.35,31.26v41.2H29.45V31.26h25.9m0-2.08H29.45a2.08,2.08,0,0,0-2.08,2.08v41.2a2.08,2.08,0,0,0,2.08,2.08h25.9a2.08,2.08,0,0,0,2.08-2.08V31.26a2.08,2.08,0,0,0-2.08-2.08h0Z" style="fill:#fff"/><rect x="41.97" y="31.26" width="2.08" height="42.67" style="fill:#fff"/><path d="M115.59,76.4h-0.16l-14.06-2.2,0.32-2.06,12.86,2V28.28l-12.86,1.9-0.3-2.06L115.44,26a1,1,0,0,1,1.19,1V75.36A1,1,0,0,1,115.59,76.4Z" style="fill:#fff"/></svg>