<svg xmlns="http://www.w3.org/2000/svg" viewBox="0 0 45 43.5">
  <path d="M44.86,34.24a4,4,0,0,1-4,4H4a4,4,0,0,1-4-4V7A4,4,0,0,1,4,3H40.86a4,4,0,0,1,4,4V34.24Zm-4-28H4a0.82,0.82,0,0,0-.8.8,9,9,0,0,0,3.68,7.11q5,3.94,10,7.94c1.33,1.08,3.73,3.38,5.48,3.38h0.05c1.75,0,4.16-2.3,5.48-3.38q5-4,10-7.94c1.63-1.28,3.68-4.06,3.68-6.18C41.66,7.31,41.81,6.2,40.86,6.2ZM41.66,15a13.44,13.44,0,0,1-1.73,1.65c-3.58,2.75-7.18,5.56-10.67,8.46-1.88,1.58-4.21,3.51-6.81,3.51H22.41c-2.6,0-4.93-1.93-6.81-3.51-3.48-2.9-7.09-5.71-10.67-8.46A13.44,13.44,0,0,1,3.2,15V34.24A0.82,0.82,0,0,0,4,35H40.86a0.82,0.82,0,0,0,.8-0.8V15Z"/>
</svg>
