<svg version="1.1" id="Layer_1" xmlns="http://www.w3.org/2000/svg" xmlns:xlink="http://www.w3.org/1999/xlink" x="0px" y="0px"
	 viewBox="0 0 48 43.5" enable-background="new 0 0 48 43.5" xml:space="preserve">
<path d="M23.6,39C13.9,39,6,31.1,6,21.4S13.9,3.8,23.6,3.8s17.6,7.9,17.6,17.6S33.3,39,23.6,39z M35.6,16.4
	c-4-2.3-9.4-3.4-14.5-3.4c-3,0-5.8,0.3-8.3,1.1c-0.6,0.2-1.2,0.7-1.2,1.7c0,0.9,0.7,1.7,1.6,1.7c0.3,0,0.7-0.1,0.9-0.2
	c2.2-0.6,4.6-0.8,7-0.8c4.8,0,9.7,1.1,12.9,3c0.3,0.2,0.5,0.3,0.9,0.3c0.9,0,1.6-0.7,1.6-1.6C36.5,17.1,36.1,16.7,35.6,16.4z
	 M33.2,22.3c-3.5-2.1-7.9-3.2-12.5-3.2c-3,0-5,0.4-6.9,1c-0.7,0.2-1.1,0.7-1.1,1.5s0.6,1.4,1.4,1.4c0.3,0,0.5-0.1,0.8-0.2
	c1.6-0.4,3.5-0.8,5.7-0.8c4.3,0,8.3,1.1,11.2,2.8c0.3,0.1,0.5,0.3,0.9,0.3c0.8,0,1.4-0.6,1.4-1.4C34,23,33.8,22.6,33.2,22.3z
	 M31.1,27.4c-3-1.8-6.4-2.6-10.2-2.6c-2.2,0-4.4,0.3-6.6,0.8c-0.5,0.1-1,0.5-1,1.2c0,0.6,0.4,1.1,1.1,1.1c0.2,0,0.6-0.1,0.8-0.2
	c1.8-0.4,3.7-0.6,5.6-0.6c3.4,0,6.5,0.8,9.1,2.4c0.3,0.2,0.5,0.3,0.8,0.3c0.6,0,1.1-0.5,1.1-1.1S31.6,27.7,31.1,27.4z"/>
</svg>
