<svg xmlns="http://www.w3.org/2000/svg" xmlns:xlink="http://www.w3.org/1999/xlink" x="0px" y="0px"
	 viewBox="0 0 43.5 43.5" enable-background="new 0 0 43.5 43.5" xml:space="preserve">
<path d="M35,14.2c0,0.3,0,0.6,0,0.9c0,9.5-7.3,20.5-20.5,20.5c-4.1,0-7.9-1.2-11.1-3.2c0.6,0.1,1.1,0.1,1.7,0.1
	c3.4,0,6.5-1.1,9-3.1c-3.2-0.1-5.8-2.1-6.7-5c0.4,0.1,0.9,0.1,1.4,0.1c0.6,0,1.3-0.1,1.9-0.2c-3.3-0.7-5.8-3.6-5.8-7.1
	c0,0,0-0.1,0-0.1c1,0.5,2.1,0.9,3.3,0.9c-1.9-1.3-3.2-3.5-3.2-6c0-1.3,0.4-2.6,1-3.6c3.5,4.4,8.9,7.2,14.9,7.5
	c-0.1-0.5-0.2-1.1-0.2-1.7c0-4,3.2-7.2,7.2-7.2c2.1,0,4,0.9,5.3,2.3c1.6-0.3,3.2-0.9,4.6-1.7c-0.5,1.7-1.7,3.1-3.2,4
	c1.5-0.2,2.9-0.6,4.2-1.1C37.7,11.9,36.5,13.2,35,14.2z"/>
</svg>
